Coordinates
version=1
nRows=25
nColumns=28
inDegrees=yes

Units are S.I. units (second, meters, Newtons, ...)
Angles are in degrees.

endheader
time	pelvis_tilt	pelvis_list	pelvis_rotation	pelvis_tx	pelvis_ty	pelvis_tz	hip_flexion_r	hip_adduction_r	hip_rotation_r	knee_angle_r	ankle_angle_r	subtalar_angle_r	mtp_angle_r	hip_flexion_l	hip_adduction_l	hip_rotation_l	knee_angle_l	socket_flexion	socket_adduction	socket_rotation	socket_tx	socket_ty	socket_tz	foot_flex	lumbar_extension	lumbar_bending	lumbar_rotation
      0.32083333	      0.50276978	     -4.46695759	     -6.76674604	     -0.35804197	      1.01870173	      0.24297334	     19.64460461	      4.00385272	     -2.07908913	    -68.45575763	      0.74999675	    -18.72711603	     14.62099568	      6.53501768	     -2.22390096	     19.69953614	     -5.79726423	      7.08598038	      1.43266552	    -12.59891882	      0.04827993	     -0.01565207	      0.00597543	     -0.28697059	    -13.48223530	      2.08121784	      6.34904756
      0.32500000	      0.56455552	     -4.46500762	     -6.65992814	     -0.35363905	      1.01911945	      0.24314999	     20.16776975	      4.03710086	     -2.18431866	    -68.11036666	      0.79843021	    -18.71480636	     14.62322450	      6.29134189	     -2.20628645	     19.64582559	     -5.81435556	      7.10423173	      1.48467482	    -12.56222389	      0.04927512	     -0.01541455	      0.00581982	     -0.23801332	    -13.64212603	      2.04339866	      6.33905242
      0.32916667	      0.55134454	     -4.50973122	     -6.48931075	     -0.34818161	      1.01948153	      0.24323709	     20.62283796	      4.00724873	     -2.52476465	    -67.63010340	      1.05918357	    -18.63114283	     14.65358193	      5.74722566	     -2.31421196	     19.60107243	     -5.63648319	      6.95178137	      1.49617328	    -12.27607242	      0.04775436	     -0.01564346	      0.00534046	      0.03536826	    -13.49997558	      2.07003867	      6.24593341
      0.33333333	      0.60981564	     -4.50924156	     -6.38999886	     -0.34383710	      1.01980870	      0.24336943	     21.14097135	      4.03599303	     -2.60715907	    -67.23587059	      1.14455509	    -18.60912279	     14.66483034	      5.50777982	     -2.29874805	     19.55039704	     -5.65400417	      6.96753280	      1.53215386	    -12.23910934	      0.04868936	     -0.01543935	      0.00515754	      0.04941682	    -13.67791845	      2.07101807	      6.21904901
      0.33750000	      0.85779867	     -4.86449592	     -6.08811085	     -0.33814633	      1.02058012	      0.24311752	     21.11312400	      4.24647754	     -3.09590620	    -66.46207395	      2.14298742	    -17.68171896	     14.84193838	      4.65021626	     -2.72190326	     19.48234093	     -5.44351259	      6.78415815	      1.54770281	    -11.83602904	      0.04732543	     -0.01606516	      0.00447593	      0.12493586	    -13.86725582	      2.58410370	      5.52974018
      0.34166667	      0.90976540	     -4.84949228	     -6.00096752	     -0.33386768	      1.02078075	      0.24333808	     21.63850428	      4.25372053	     -3.19642213	    -66.03746322	      2.19037468	    -17.67553927	     14.84213749	      4.41359977	     -2.70685349	     19.44464944	     -5.45602076	      6.79796102	      1.59416985	    -11.78755104	      0.04820056	     -0.01592717	      0.00424208	      0.18009417	    -14.04748301	      2.53398023	      5.52146145
      0.34583333	      0.89846705	     -4.85403455	     -5.80988143	     -0.32839657	      1.02114769	      0.24351275	     21.98967652	      4.20002734	     -3.48534235	    -65.31150241	      2.40001599	    -17.62830010	     14.85350086	      3.90635197	     -2.77203469	     19.41396343	     -5.29770493	      6.66228304	      1.60788423	    -11.53701675	      0.04692251	     -0.01594177	      0.00387860	      0.44887553	    -13.89098834	      2.49164382	      5.45266691
      0.35000000	      0.92191804	     -4.92009613	     -5.65001280	     -0.32324115	      1.02144620	      0.24354310	     22.34755690	      4.19898541	     -3.76765743	    -64.62918816	      2.67939816	    -17.52551753	     14.88039332	      3.41745840	     -2.83086692	     19.36260381	     -5.17056104	      6.53870623	      1.56089386	    -11.34074734	      0.04604056	     -0.01610306	      0.00410081	      0.56781264	    -13.88386235	      2.59059099	      5.32592651
      0.35416667	      0.98481498	     -4.96944456	     -5.48843214	     -0.31830595	      1.02175074	      0.24364792	     22.66601884	      4.20547132	     -3.99683094	    -63.91431748	      2.93887470	    -17.39515440	     14.90342870	      2.97692750	     -2.89966391	     19.32179428	     -5.08399003	      6.46080431	      1.56895338	    -11.17377396	      0.04572649	     -0.01613664	      0.00393834	      0.67627395	    -13.95163359	      2.64939274	      5.17932541
      0.35833333	      1.45106526	     -5.30129449	     -5.16300937	     -0.31325366	      1.02256506	      0.24319469	     22.44495111	      4.31208268	     -4.54579088	    -63.06968196	      3.58386657	    -16.66121110	     14.91818422	      2.03755052	     -3.24520948	     19.26726060	     -4.94821248	      6.33758776	      1.55519180	    -10.88397116	      0.04506858	     -0.01660667	      0.00349794	      0.70234350	    -14.53381373	      3.15377341	      4.55869445
      0.36250000	      1.47528409	     -5.24780812	     -5.04486660	     -0.30860756	      1.02274335	      0.24355374	     22.82656106	      4.27526664	     -4.65729459	    -62.32226699	      3.67262058	    -16.65997607	     14.89875342	      1.73112716	     -3.24414174	     19.27342830	     -4.90893503	      6.30930806	      1.60613315	    -10.75431462	      0.04526720	     -0.01638090	      0.00302637	      0.86112910	    -14.57948406	      3.01415527	      4.54225908
      0.36666667	      1.47875654	     -5.22894194	     -4.91022817	     -0.30367961	      1.02289634	      0.24373036	     23.17547115	      4.21921555	     -4.85867307	    -61.51448107	      3.82933419	    -16.66889211	     14.88193778	      1.35033472	     -3.23965301	     19.22802811	     -4.82542683	      6.23311533	      1.60641660	    -10.62189034	      0.04484550	     -0.01633608	      0.00303178	      1.00605665	    -14.56874854	      2.98525215	      4.50128546
      0.37083333	      1.48851288	     -5.22636070	     -4.77751928	     -0.29876385	      1.02301938	      0.24387739	     23.50121744	      4.16990788	     -5.07105880	    -60.67124800	      4.00906593	    -16.67121318	     14.86507179	      0.96162011	     -3.24809260	     19.18813374	     -4.74453994	      6.15616671	      1.58653467	    -10.47771456	      0.04442236	     -0.01631069	      0.00306571	      1.13024945	    -14.56929382	      2.97920569	      4.43556556
      0.37500000	      1.50287729	     -5.23093497	     -4.63360247	     -0.29383764	      1.02312695	      0.24398611	     23.79706239	      4.12366278	     -5.29321692	    -59.78291092	      4.20016080	    -16.66915472	     14.84326025	      0.56785624	     -3.26299354	     19.14789389	     -4.66267734	      6.07828046	      1.56537702	    -10.32625247	      0.04399719	     -0.01629982	      0.00310698	      1.25415081	    -14.57748686	      2.98929632	      4.35132370
      0.37916667	      2.12990595	     -5.60729091	     -4.18128540	     -0.28877191	      1.02414491	      0.24340504	     23.25872520	      4.23391074	     -5.97565132	    -58.65332571	      4.68875278	    -16.24632128	     14.53568827	     -0.57199862	     -3.64712692	     19.13052836	     -4.50486311	      5.93261444	      1.50586816	     -9.87529366	      0.04300280	     -0.01671338	      0.00303148	      1.32217585	    -15.34274132	      3.54975199	      3.65248683
      0.38333333	      2.11753183	     -5.53015097	     -4.10892978	     -0.28411394	      1.02411640	      0.24369838	     23.60277888	      4.14694735	     -6.09898919	    -57.74664131	      4.79324151	    -16.28666212	     14.49981107	     -0.83283453	     -3.61814413	     19.06962763	     -4.47779694	      5.91290276	      1.55491085	     -9.82986942	      0.04322681	     -0.01651727	      0.00255153	      1.45609459	    -15.34858889	      3.42209822	      3.65840002
      0.38750000	      2.08004278	     -5.47137999	     -4.00039960	     -0.27927979	      1.02408673	      0.24393657	     23.91222219	      4.06710492	     -6.25333466	    -56.75601481	      4.93550074	    -16.34731333	     14.45663397	     -1.14525781	     -3.58029814	     19.03529792	     -4.41714033	      5.85726790	      1.54687792	     -9.71430424	      0.04287625	     -0.01641211	      0.00252793	      1.59851014	    -15.30168972	      3.33968014	      3.64999686
      0.39166667	      2.04589163	     -5.43091077	     -3.87939246	     -0.27442133	      1.02402551	      0.24411645	     24.19781372	      3.99305665	     -6.44401089	    -55.73744795	      5.09143947	    -16.42012981	     14.40462647	     -1.47455021	     -3.54011609	     18.99507589	     -4.35091833	      5.79362679	      1.52093181	     -9.58759887	      0.04245825	     -0.01637183	      0.00276225	      1.73126639	    -15.25903067	      3.29869444	      3.62350253
      0.39583333	      2.01745681	     -5.39533894	     -3.75263193	     -0.26956676	      1.02393838	      0.24422725	     24.45549650	      3.91264074	     -6.64660244	    -54.67660335	      5.25044439	    -16.49975306	     14.34305743	     -1.80196166	     -3.50622299	     18.95537691	     -4.28940247	      5.73329768	      1.48757089	     -9.45605647	      0.04208223	     -0.01632980	      0.00291279	      1.85889797	    -15.22952686	      3.26646734	      3.57945218
      0.40000000	      1.99489609	     -5.36136832	     -3.61998450	     -0.26472205	      1.02384831	      0.24433881	     24.68375925	      3.83264986	     -6.85725020	    -53.57343594	      5.40768623	    -16.58636549	     14.27136254	     -2.12534802	     -3.47447683	     18.91934526	     -4.23412194	      5.67843201	      1.45341294	     -9.31973427	      0.04177686	     -0.01626578	      0.00306207	      1.98505184	    -15.20798302	      3.24052234	      3.52301540
      0.40416667	      1.97572826	     -5.32776771	     -3.48212861	     -0.25989512	      1.02373337	      0.24444297	     24.88882806	      3.75156849	     -7.07491991	    -52.43487869	      5.56163150	    -16.68128251	     14.18905738	     -2.44493751	     -3.44271054	     18.88581535	     -4.18389912	      5.62849608	      1.41981710	     -9.17954215	      0.04150503	     -0.01620313	      0.00321510	      2.11264348	    -15.19400794	      3.21806961	      3.45612901
      0.40833333	      1.95547959	     -5.29414434	     -3.33719820	     -0.25507827	      1.02360125	      0.24453533	     25.07225874	      3.67095155	     -7.29763586	    -51.25686952	      5.71121090	    -16.78500193	     14.09528941	     -2.75916063	     -3.40777557	     18.85630207	     -4.13640249	      5.58120746	      1.38594918	     -9.03424145	      0.04124580	     -0.01614639	      0.00340940	      2.23920966	    -15.18251248	      3.20100789	      3.38201091
      0.41250000	      2.63734657	     -5.73060683	     -2.73425154	     -0.25014420	      1.02462703	      0.24373816	     24.26927272	      3.82642558	     -8.15736740	    -49.71507427	      5.77207040	    -17.16993265	     13.07556805	     -3.80234106	     -3.88841013	     18.81201171	     -4.05566202	      5.50440602	      1.33171821	     -8.37393562	      0.04121587	     -0.01634233	      0.00333231	      2.33495307	    -16.02121018	      3.88282704	      2.60270883
      0.41666667	      2.56977713	     -5.61795609	     -2.70089518	     -0.24552001	      1.02430031	      0.24411046	     24.52201897	      3.73256752	     -8.24345679	    -48.53886853	      5.93066496	    -17.21305240	     13.01306493	     -3.99725062	     -3.81727400	     18.73411887	     -4.04785243	      5.50172818	      1.38067753	     -8.37674615	      0.04140779	     -0.01619107	      0.00293889	      2.46401439	    -15.97620476	      3.72255762	      2.62099936
      0.42083333	      2.47766068	     -5.51765960	     -2.61978681	     -0.24076440	      1.02399073	      0.24436803	     24.74158119	      3.64093470	     -8.34728306	    -47.27681908	      6.09508380	    -17.28607399	     12.93286649	     -4.22529711	     -3.72983414	     18.70973712	     -4.01085782	      5.46609361	      1.36105422	     -8.29305093	      0.04115987	     -0.01606255	      0.00300495	      2.60323282	    -15.88564094	      3.60155295	      2.63695317
